<svg width="24" height="24" viewBox="0 0 24 24" fill="none" xmlns="http://www.w3.org/2000/svg">
<path d="M20.68 7.03C20.4579 6.56595 20.1451 6.15112 19.76 5.81L16.76 3.09C16.0937 2.47431 15.2433 2.09512 14.34 2.011C14.2776 1.99574 14.2124 1.99574 14.15 2.011H8.21C7.54764 1.98291 6.88631 2.08682 6.26448 2.31669C5.64265 2.54656 5.07275 2.89779 4.58792 3.34995C4.10309 3.80212 3.71303 4.34618 3.44042 4.95049C3.16781 5.5548 3.0181 6.2073 3 6.87V17.167C3.03577 18.1662 3.37027 19.1317 3.9603 19.9388C4.55033 20.746 5.3688 21.3577 6.31 21.695C6.92211 21.9277 7.57609 22.0298 8.23 21.995H15.79C16.4524 22.0231 17.1137 21.9192 17.7355 21.6893C18.3573 21.4594 18.9273 21.1082 19.4121 20.6561C19.8969 20.2039 20.287 19.6598 20.5596 19.0555C20.8322 18.4512 20.9819 17.7987 21 17.136V8.569C21.0034 8.03882 20.8943 7.51394 20.68 7.029M16.06 7.419C15.9173 7.42032 15.7758 7.39336 15.6436 7.33968C15.5114 7.286 15.3912 7.20665 15.2899 7.10624C15.1885 7.00582 15.1081 6.88631 15.0532 6.75462C14.9983 6.62294 14.97 6.48168 14.97 6.339V3.69C15.63 3.85 18.2 6.49 18.76 6.93C18.9267 7.07 19.0667 7.23334 19.18 7.42L16.06 7.419Z" fill="#5C7F91"/>
</svg>
