<svg width="16" height="16" viewBox="0 0 16 16" fill="none" xmlns="http://www.w3.org/2000/svg">
<g clip-path="url(#clip0_1_15)">
<path d="M15.5921 7.29725L8.70263 0.407998C8.30613 0.011248 7.66263 0.011248 7.2655 0.407998L5.835 1.83875L7.64975 3.6535C8.07163 3.51112 8.55513 3.60662 8.89125 3.94275C9.22913 4.281 9.32388 4.76862 9.178 5.19187L10.927 6.941C11.3501 6.79512 11.8385 6.88937 12.1763 7.22787C12.6488 7.7 12.6488 8.46537 12.1763 8.93775C12.064 9.05009 11.9306 9.1392 11.7839 9.2C11.6372 9.26081 11.4799 9.2921 11.3211 9.2921C11.1622 9.2921 11.005 9.26081 10.8582 9.2C10.7115 9.1392 10.5782 9.05009 10.4659 8.93775C10.2972 8.76892 10.1822 8.55398 10.1354 8.31998C10.0886 8.08597 10.112 7.84335 10.2028 7.62262L8.57175 5.99162L8.5715 10.2842C8.68985 10.3425 8.79789 10.4197 8.89138 10.5127C9.36363 10.9849 9.36363 11.75 8.89138 12.2231C8.419 12.6952 7.65338 12.6952 7.1815 12.2231C6.70925 11.7501 6.70925 10.985 7.1815 10.5127C7.29475 10.3996 7.4293 10.3099 7.57738 10.249V5.91662C7.42913 5.85597 7.29453 5.76625 7.1815 5.65275C6.82375 5.29525 6.73763 4.77025 6.92113 4.33075L5.132 2.54162L0.408002 7.26537C0.217416 7.45602 0.110352 7.71455 0.110352 7.98412C0.110352 8.25369 0.217416 8.51223 0.408002 8.70287L7.29763 15.5921C7.69438 15.9889 8.33763 15.9889 8.735 15.5921L15.5923 8.73487C15.7828 8.54417 15.8898 8.28562 15.8898 8.01604C15.8898 7.74645 15.7827 7.48791 15.5921 7.29725Z" fill="#F34F29"/>
</g>
<defs>
<clipPath id="clip0_1_15">
<rect width="16" height="16" fill="white"/>
</clipPath>
</defs>
</svg>
