<svg width="16" height="16" viewBox="0 0 16 16" fill="none" xmlns="http://www.w3.org/2000/svg">
<path d="M2.007 7.488C2.28996 7.49285 2.56619 7.40154 2.7905 7.229C2.99801 7.05505 3.13999 6.81554 3.193 6.55C3.27603 6.06393 3.31186 5.57097 3.3 5.078C3.304 4.383 3.3165 3.92517 3.3375 3.7045C3.35941 3.41377 3.43006 3.12879 3.5465 2.8615C3.63465 2.66689 3.76336 2.49335 3.924 2.3525C4.09314 2.21588 4.28953 2.117 4.5 2.0625C4.75412 2.01233 5.01313 1.99136 5.272 2H5.622V2.98H5.4285C5.1217 2.94107 4.81196 3.02521 4.567 3.214C4.38571 3.53081 4.3112 3.89756 4.3545 4.26C4.37128 4.94958 4.34841 5.63955 4.286 6.3265C4.24123 6.69536 4.10963 7.04835 3.902 7.3565C3.67241 7.63486 3.38055 7.8553 3.05 8C3.47662 8.16312 3.83021 8.47446 4.046 8.877C4.29113 9.49026 4.39668 10.1504 4.355 10.8095C4.355 11.6212 4.36334 12.1045 4.38 12.2595C4.38664 12.481 4.47664 12.6919 4.632 12.85C4.87298 12.9886 5.15155 13.0475 5.428 13.0185H5.6215V14H5.2715C4.97259 14.0134 4.67342 13.9797 4.385 13.9C4.12556 13.8093 3.89638 13.6483 3.723 13.435C3.53863 13.1987 3.42104 12.9172 3.3825 12.62C3.31863 12.0835 3.29107 11.5432 3.3 11.003C3.31336 10.4831 3.27754 9.96314 3.193 9.45C3.13956 9.18421 2.99769 8.94435 2.7905 8.7695C2.56658 8.59589 2.29032 8.50351 2.007 8.5075V7.488ZM13.993 8.5055C13.7097 8.50151 13.4334 8.59389 13.2095 8.7675C13.0023 8.94235 12.8604 9.18221 12.807 9.448C12.7227 9.96166 12.6872 10.4821 12.701 11.0025C12.7093 11.5428 12.681 12.083 12.6165 12.6195C12.578 12.9167 12.4604 13.1982 12.276 13.4345C12.1026 13.6478 11.8735 13.8088 11.614 13.8995C11.3256 13.9792 11.0264 14.0129 10.7275 13.9995H10.3775V13.02H10.571C10.8475 13.049 11.126 12.9901 11.367 12.8515C11.5233 12.693 11.6137 12.4811 11.62 12.2585C11.6367 12.1045 11.645 11.6212 11.645 10.8085C11.6033 10.1494 11.7089 9.48926 11.954 8.876C12.17 8.47383 12.5235 8.16287 12.95 8C12.6202 7.85518 12.3291 7.63493 12.1 7.357C11.8924 7.04885 11.7608 6.69586 11.716 6.327C11.6536 5.64005 11.6307 4.95008 11.6475 4.2605C11.6908 3.89806 11.6163 3.53131 11.435 3.2145C11.1901 3.02571 10.8803 2.94157 10.5735 2.9805H10.38V2H10.73C10.9882 1.99151 11.2465 2.01248 11.5 2.0625C11.71 2.11735 11.9059 2.21639 12.0745 2.353C12.2352 2.49385 12.3639 2.66739 12.452 2.862C12.5684 3.12929 12.6391 3.41427 12.661 3.705C12.6817 3.92567 12.6942 4.3835 12.6985 5.0785C12.6862 5.57194 12.7217 6.0654 12.8045 6.552C12.8578 6.81699 12.9998 7.05593 13.207 7.2295C13.4313 7.40204 13.7075 7.49335 13.9905 7.4885L13.993 8.5055Z" fill="#F5DE19"/>
</svg>
