<svg width="16" height="16" viewBox="0 0 16 16" fill="none" xmlns="http://www.w3.org/2000/svg">
<path d="M1.49375 3.04351C0.764254 3.04351 0.166504 3.65188 0.166504 4.37863V11.6214C0.166504 12.3481 0.764254 12.9565 1.49363 12.9565H14.5064C15.2358 12.9565 15.8335 12.3481 15.8335 11.6214V4.37876C15.8335 3.65201 15.2356 3.04363 14.5064 3.04363H1.86225L1.862 3.04338L1.49375 3.04351ZM1.49288 4.23638H14.5064C14.5845 4.23638 14.6409 4.28926 14.6409 4.37888V11.6214C14.6409 11.711 14.5843 11.7639 14.5064 11.7639H1.49363C1.41575 11.7639 1.35913 11.711 1.35913 11.6214V4.37863C1.35913 4.28926 1.4155 4.23676 1.49288 4.23638Z" fill="#B67C00"/>
<path d="M2.59012 10.5125V5.4875H4.05249L5.51462 7.335L6.97624 5.4875H8.43824V10.5125H6.97624V7.6305L5.51449 9.478L4.05224 7.6305V10.5125H2.59012ZM11.7281 10.5125L9.53499 8.07388H10.9971V5.4875H12.4594V8.07375H13.9216L11.7281 10.5125Z" fill="#B67C00"/>
</svg>
