<svg width="16" height="16" viewBox="0 0 16 16" fill="none" xmlns="http://www.w3.org/2000/svg">
<path d="M7.92387 1.531C7.39612 1.5335 6.89237 1.57838 6.44887 1.65688C5.14262 1.88763 4.90562 2.37063 4.90562 3.2615V4.43788H7.99224V4.83H3.74712C2.85012 4.83 2.06462 5.36913 1.81887 6.39513C1.53537 7.57075 1.52287 8.3045 1.81887 9.53213C2.03824 10.446 2.56224 11.097 3.45937 11.097H4.52074V9.68675C4.52074 8.66788 5.40212 7.76925 6.44899 7.76925H9.53212C10.3904 7.76925 11.0754 7.0625 11.0754 6.20075V3.26163C11.0754 2.425 10.3696 1.79663 9.53212 1.657C9.00162 1.56875 8.45149 1.52863 7.92387 1.531ZM6.25462 2.47713C6.57337 2.47713 6.83387 2.74175 6.83387 3.06725C6.83387 3.39138 6.57349 3.6535 6.25462 3.6535C5.93462 3.6535 5.67549 3.39138 5.67549 3.06725C5.67537 2.74175 5.93462 2.47713 6.25462 2.47713Z" fill="url(#paint0_linear_1_2)"/>
<path d="M11.4603 4.83V6.20075C11.4603 7.26325 10.5593 8.15762 9.53201 8.15762H6.44889C5.60439 8.15762 4.90564 8.8805 4.90564 9.72625V12.6656C4.90564 13.502 5.63289 13.9941 6.44889 14.234C7.42589 14.5211 8.36289 14.5731 9.53201 14.234C10.309 14.0089 11.0753 13.5561 11.0753 12.6656V11.4891H7.99226V11.0969H12.6188C13.5158 11.0969 13.8503 10.4713 14.1623 9.532C14.4845 8.56513 14.4706 7.63525 14.1623 6.395C13.9405 5.50188 13.5171 4.82987 12.6188 4.82987L11.4603 4.83ZM9.72614 12.2734C10.0463 12.2734 10.3054 12.5355 10.3054 12.8599C10.3054 13.1851 10.0461 13.4497 9.72614 13.4497C9.40739 13.4497 9.14702 13.1851 9.14702 12.8599C9.14702 12.5355 9.40739 12.2734 9.72614 12.2734Z" fill="url(#paint1_linear_1_2)"/>
<path opacity="0.444" d="M12.1636 14.9496C12.1636 15.3925 10.3116 15.7516 8.02725 15.7516C5.74275 15.7516 3.89075 15.3925 3.89075 14.9496C3.89075 14.5067 5.74262 14.1475 8.02725 14.1475C10.3116 14.1475 12.1636 14.5065 12.1636 14.9496Z" fill="url(#paint2_radial_1_2)"/>
<defs>
<linearGradient id="paint0_linear_1_2" x1="1.2921" y1="1.89883" x2="8.41133" y2="7.97006" gradientUnits="userSpaceOnUse">
<stop stop-color="#5A9FD4"/>
<stop offset="1" stop-color="#306998"/>
</linearGradient>
<linearGradient id="paint1_linear_1_2" x1="11.0899" y1="11.744" x2="8.53681" y2="8.16378" gradientUnits="userSpaceOnUse">
<stop stop-color="#FFD43B"/>
<stop offset="1" stop-color="#FFE873"/>
</linearGradient>
<radialGradient id="paint2_radial_1_2" cx="0" cy="0" r="1" gradientUnits="userSpaceOnUse" gradientTransform="translate(8.01053 14.9267) rotate(-90) scale(0.80229 3.52673)">
<stop stop-color="#B8B8B8" stop-opacity="0.498"/>
<stop offset="1" stop-color="#7F7F7F" stop-opacity="0"/>
</radialGradient>
</defs>
</svg>
