<svg width="16" height="16" viewBox="0 0 16 16" fill="none" xmlns="http://www.w3.org/2000/svg">
<path d="M8 4.56875C4.8535 4.56875 2.30225 3.68012 2.30225 2.50687V13.4931C2.30225 14.6221 4.80912 15.5376 7.91987 15.5556H8C11.1465 15.5556 13.6977 14.6665 13.6977 13.4931V2.50687C13.6977 3.65337 11.1465 4.56875 8 4.56875Z" fill="url(#paint0_linear_1_6)"/>
<path d="M13.6977 2.50687C13.6977 3.65337 11.1465 4.56887 8 4.56887C4.8535 4.56887 2.30225 3.68012 2.30225 2.50687C2.30225 1.3335 4.8535 0.444374 8 0.444374C11.1465 0.444374 13.6977 1.3335 13.6977 2.50687Z" fill="#E8E8E8"/>
<path d="M12.3735 2.33787C12.3735 3.06687 10.4087 3.65337 8 3.65337C5.59125 3.65337 3.6265 3.06687 3.6265 2.33787C3.6265 1.60887 5.59125 1.03125 8 1.03125C10.4087 1.03125 12.3735 1.61762 12.3735 2.33787Z" fill="#50E6FF"/>
<path d="M7.99999 2.6665C6.82684 2.63675 5.65726 2.80818 4.54199 3.17338C5.65828 3.5319 6.82825 3.6943 7.99999 3.65338C9.17411 3.68774 10.345 3.51315 11.458 3.13775C10.3395 2.78955 9.17084 2.63029 7.99999 2.6665Z" fill="#198AB3"/>
<path d="M11.4668 10.1333V7.11137H10.6665V10.7823H12.8535V10.1333H11.4668ZM5.12014 8.64888C4.95486 8.58256 4.80161 8.48953 4.66651 8.3735C4.63067 8.33556 4.60279 8.29083 4.5845 8.24195C4.56621 8.19307 4.55788 8.14102 4.56001 8.08887C4.55733 8.0367 4.5682 7.98472 4.59157 7.93799C4.61495 7.89127 4.65002 7.85139 4.69339 7.82225C4.80279 7.74662 4.93403 7.70907 5.06689 7.71537C5.38342 7.70127 5.69577 7.79185 5.95564 7.97312V7.209C5.67181 7.10291 5.36965 7.05459 5.06689 7.06687C4.7181 7.04817 4.37417 7.15524 4.09764 7.36863C3.9772 7.46156 3.88057 7.58179 3.81572 7.71941C3.75087 7.85702 3.71965 8.00808 3.72464 8.16012C3.72464 8.61325 4.00876 8.96875 4.61339 9.23538C4.80964 9.31888 4.99464 9.42625 5.16464 9.55562C5.2062 9.59045 5.23965 9.63393 5.26267 9.68303C5.28568 9.73212 5.2977 9.78565 5.29789 9.83988C5.29789 9.94975 5.24464 10.0523 5.15576 10.1158C5.03456 10.1863 4.89548 10.2202 4.75539 10.2134C4.39788 10.2104 4.05362 10.0777 3.78664 9.83988V10.6665C4.08016 10.8181 4.40775 10.8915 4.73789 10.8799C5.11039 10.9019 5.47951 10.7989 5.78664 10.5864C5.89506 10.4837 5.97805 10.3572 6.029 10.2168C6.07995 10.0765 6.09746 9.92618 6.08014 9.77787C6.08445 9.55033 6.00541 9.32906 5.85789 9.15575C5.65025 8.93691 5.39889 8.76421 5.12014 8.64888ZM9.77789 10.062C9.9797 9.72409 10.0814 9.33583 10.0713 8.94238C10.0512 8.60914 9.95051 8.28575 9.77789 8C9.63912 7.72249 9.42307 7.49103 9.15576 7.3335C8.88484 7.17964 8.57819 7.0998 8.26664 7.102C7.9309 7.09467 7.59935 7.17764 7.30664 7.34225C7.03212 7.49523 6.807 7.72343 6.65776 8C6.50051 8.31425 6.42127 8.66176 6.42676 9.01313C6.42853 9.32201 6.50155 9.62632 6.64014 9.90238C6.77588 10.1768 6.98909 10.4054 7.25339 10.56C7.52195 10.7234 7.82796 10.8152 8.14214 10.8266L8.90676 11.7154H9.98239L8.88864 10.7379C9.25693 10.6273 9.57279 10.3873 9.77789 10.062ZM8.88864 9.83988C8.80782 9.94042 8.70476 10.0208 8.58759 10.0748C8.47042 10.1288 8.34233 10.1548 8.21339 10.1509C8.08343 10.1551 7.95433 10.1283 7.8368 10.0727C7.71928 10.0171 7.61672 9.93422 7.53764 9.831C7.35007 9.57423 7.25879 9.25967 7.27976 8.94238C7.25931 8.62499 7.35054 8.31044 7.53764 8.05325C7.62125 7.95006 7.72695 7.86696 7.84696 7.81006C7.96696 7.75317 8.0982 7.72393 8.23101 7.7245C8.36087 7.71876 8.49008 7.74587 8.60667 7.80334C8.72326 7.8608 8.82347 7.94676 8.89801 8.05325C9.07301 8.31543 9.15723 8.62776 9.13776 8.94238C9.16903 9.2621 9.08023 9.58201 8.88864 9.83988Z" fill="url(#paint1_radial_1_6)"/>
<defs>
<linearGradient id="paint0_linear_1_6" x1="2.30222" y1="9.03111" x2="13.6978" y2="9.03111" gradientUnits="userSpaceOnUse">
<stop stop-color="#005BA1"/>
<stop offset="0.07" stop-color="#0060A9"/>
<stop offset="0.36" stop-color="#0071C8"/>
<stop offset="0.52" stop-color="#0078D4"/>
<stop offset="0.64" stop-color="#0074CD"/>
<stop offset="0.82" stop-color="#006ABB"/>
<stop offset="1" stop-color="#005BA1"/>
</linearGradient>
<radialGradient id="paint1_radial_1_6" cx="0" cy="0" r="1" gradientUnits="userSpaceOnUse" gradientTransform="translate(6516.3 2097.81) scale(4713.79 1222.71)">
<stop stop-color="#F2F2F2"/>
<stop offset="0.58" stop-color="#EEEEEE"/>
<stop offset="1" stop-color="#E6E6E6"/>
</radialGradient>
</defs>
</svg>
