<svg width="16" height="16" viewBox="0 0 16 16" fill="none" xmlns="http://www.w3.org/2000/svg">
<g clip-path="url(#clip0_1_17)">
<path d="M2.78175 4.97225L0.0625 0.703629H2.02375L3.75288 3.45225L5.496 0.703629H7.3735L4.52675 4.97225V7.6785H2.78175V4.97225Z" fill="#00B6AD"/>
<path d="M10.3035 6.14363H7.14525L6.50287 7.69463H5.10437L8.06187 0.719879H9.49225L12.3297 7.69463H10.835L10.3035 6.14363ZM9.77887 4.75113L8.81075 2.19163L7.7305 4.75113H9.77887Z" fill="#CB171E"/>
<path d="M2.78174 8.46076V15.2968H4.24836V10.5813L5.78336 13.7508H6.93786L8.52536 10.47V15.2951H9.93236V8.46076H8.01124L6.30649 11.552L4.68299 8.46076H2.78174ZM15.9377 13.8113H12.3299V8.45876H10.8352V15.2656H15.9377V13.8113Z" fill="#00B6AD"/>
</g>
<defs>
<clipPath id="clip0_1_17">
<rect width="16" height="16" fill="white"/>
</clipPath>
</defs>
</svg>
