<svg width="16" height="16" viewBox="0 0 16 16" fill="none" xmlns="http://www.w3.org/2000/svg">
<path d="M4.66667 12.6667H8.66667C10.552 12.6667 11.4953 12.6667 12.0807 12.0807C12.6667 11.4953 12.6667 10.552 12.6667 8.66666V6.66666M12.6667 6.66666C13.1333 6.66666 14.006 7.99599 14.3333 8.33332M12.6667 6.66666C12.2 6.66666 11.3273 7.99599 11 8.33332M3.33334 4.66666V11.3333" stroke="#AA8738" stroke-linecap="round" stroke-linejoin="round"/>
<path d="M3.33333 4.66667C4.06971 4.66667 4.66667 4.06971 4.66667 3.33333C4.66667 2.59695 4.06971 2 3.33333 2C2.59695 2 2 2.59695 2 3.33333C2 4.06971 2.59695 4.66667 3.33333 4.66667Z" stroke="#AA8738" stroke-linecap="round" stroke-linejoin="round"/>
<path d="M12.6667 4.66667C13.403 4.66667 14 4.06971 14 3.33333C14 2.59695 13.403 2 12.6667 2C11.9303 2 11.3333 2.59695 11.3333 3.33333C11.3333 4.06971 11.9303 4.66667 12.6667 4.66667Z" stroke="#AA8738" stroke-linecap="round" stroke-linejoin="round"/>
<path d="M3.33333 14C4.06971 14 4.66667 13.4031 4.66667 12.6667C4.66667 11.9303 4.06971 11.3333 3.33333 11.3333C2.59695 11.3333 2 11.9303 2 12.6667C2 13.4031 2.59695 14 3.33333 14Z" stroke="#AA8738" stroke-linecap="round" stroke-linejoin="round"/>
</svg>
