<svg width="17" height="17" viewBox="0 0 17 17" fill="none" xmlns="http://www.w3.org/2000/svg">
<path d="M7.65439 9.82678C7.45548 9.82678 7.26472 9.9058 7.12406 10.0464C6.98341 10.1871 6.90439 10.3779 6.90439 10.5768V11.7643L4.97752 9.83928C4.95431 9.81604 4.93591 9.78846 4.92336 9.75811C4.91081 9.72777 4.90437 9.69524 4.90439 9.6624V6.69803C5.4048 6.52111 5.82656 6.17298 6.09512 5.71517C6.36368 5.25736 6.46174 4.71935 6.37199 4.19623C6.28224 3.6731 6.01044 3.19855 5.60464 2.85645C5.19884 2.51434 4.68516 2.32671 4.15439 2.32671C3.62363 2.32671 3.10995 2.51434 2.70415 2.85645C2.29835 3.19855 2.02655 3.6731 1.9368 4.19623C1.84704 4.71935 1.94511 5.25736 2.21367 5.71517C2.48223 6.17298 2.90398 6.52111 3.40439 6.69803V9.6624C3.40369 9.89232 3.44863 10.1201 3.5366 10.3325C3.62458 10.5449 3.75384 10.7378 3.91689 10.8999L5.84189 12.8268H4.65439C4.45548 12.8268 4.26472 12.9058 4.12406 13.0464C3.98341 13.1871 3.90439 13.3779 3.90439 13.5768C3.90439 13.7757 3.98341 13.9665 4.12406 14.1071C4.26472 14.2478 4.45548 14.3268 4.65439 14.3268H7.65439C7.85331 14.3268 8.04407 14.2478 8.18472 14.1071C8.32538 13.9665 8.40439 13.7757 8.40439 13.5768V10.5768C8.40439 10.3779 8.32538 10.1871 8.18472 10.0464C8.04407 9.9058 7.85331 9.82678 7.65439 9.82678ZM4.15439 3.82678C4.30273 3.82678 4.44773 3.87076 4.57107 3.95317C4.69441 4.03559 4.79054 4.15272 4.8473 4.28976C4.90407 4.42681 4.91892 4.57761 4.88998 4.72309C4.86104 4.86858 4.78961 5.00222 4.68472 5.10711C4.57983 5.212 4.4462 5.28343 4.30071 5.31237C4.15523 5.3413 4.00443 5.32645 3.86738 5.26969C3.73034 5.21292 3.6132 5.11679 3.53079 4.99345C3.44838 4.87012 3.40439 4.72511 3.40439 4.57678C3.40439 4.37786 3.48341 4.1871 3.62406 4.04645C3.76472 3.90579 3.95548 3.82678 4.15439 3.82678ZM13.9044 10.4555V7.49115C13.9051 7.26123 13.8602 7.03346 13.7722 6.82103C13.6842 6.60861 13.5549 6.41575 13.3919 6.25365L11.4669 4.32678H12.6544C12.8533 4.32678 13.0441 4.24776 13.1847 4.10711C13.3254 3.96645 13.4044 3.77569 13.4044 3.57678C13.4044 3.37786 13.3254 3.1871 13.1847 3.04645C13.0441 2.90579 12.8533 2.82678 12.6544 2.82678H9.65439C9.45548 2.82678 9.26472 2.90579 9.12406 3.04645C8.98341 3.1871 8.90439 3.37786 8.90439 3.57678V6.57678C8.90439 6.77569 8.98341 6.96645 9.12406 7.10711C9.26472 7.24776 9.45548 7.32678 9.65439 7.32678C9.85331 7.32678 10.0441 7.24776 10.1847 7.10711C10.3254 6.96645 10.4044 6.77569 10.4044 6.57678V5.38928L12.3313 7.31615C12.3545 7.33939 12.3729 7.36697 12.3854 7.39731C12.398 7.42766 12.4044 7.46019 12.4044 7.49303V10.4574C11.904 10.6343 11.4822 10.9825 11.2137 11.4403C10.9451 11.8981 10.847 12.4361 10.9368 12.9592C11.0266 13.4823 11.2983 13.9569 11.7041 14.299C12.11 14.6411 12.6236 14.8287 13.1544 14.8287C13.6852 14.8287 14.1988 14.6411 14.6046 14.299C15.0104 13.9569 15.2822 13.4823 15.372 12.9592C15.4617 12.4361 15.3637 11.8981 15.0951 11.4403C14.8266 10.9825 14.4048 10.6343 13.9044 10.4574V10.4555ZM13.1544 13.3268C13.0061 13.3268 12.8611 13.2828 12.7377 13.2004C12.6144 13.118 12.5183 13.0008 12.4615 12.8638C12.4047 12.7267 12.3899 12.5759 12.4188 12.4305C12.4477 12.285 12.5192 12.1513 12.6241 12.0464C12.729 11.9416 12.8626 11.8701 13.0081 11.8412C13.1536 11.8122 13.3044 11.8271 13.4414 11.8839C13.5785 11.9406 13.6956 12.0368 13.778 12.1601C13.8604 12.2834 13.9044 12.4284 13.9044 12.5768C13.9044 12.7757 13.8254 12.9665 13.6847 13.1071C13.5441 13.2478 13.3533 13.3268 13.1544 13.3268Z" fill="#AA8738"/>
</svg>
