<svg width="24" height="24" viewBox="0 0 24 24" fill="none" xmlns="http://www.w3.org/2000/svg">
<path d="M20.87 7.175C20.5153 6.82113 20.0942 6.54088 19.6308 6.35038C19.1675 6.15988 18.671 6.06289 18.17 6.065H13.81C13.6455 6.06681 13.4835 6.02543 13.34 5.945C13.1978 5.86624 13.0749 5.75695 12.98 5.625L12.11 4.295C11.7579 3.77156 11.2832 3.34213 10.7272 3.04409C10.1712 2.74605 9.55082 2.58845 8.92 2.585H5.83C5.32582 2.58367 4.82637 2.68216 4.36044 2.87479C3.89451 3.06743 3.47132 3.35039 3.11528 3.70736C2.75924 4.06433 2.47738 4.48826 2.28596 4.95469C2.09455 5.42112 1.99736 5.92082 2 6.425V17.585C2.00447 18.6001 2.40655 19.5729 3.12 20.295C3.83961 21.0121 4.81408 21.4148 5.83 21.415H18.17C19.1851 21.4105 20.1579 21.0084 20.88 20.295C21.5971 19.5754 21.9998 18.6009 22 17.585V9.885C22.0008 9.38091 21.9013 8.88171 21.7073 8.41645C21.5133 7.95119 21.2287 7.52918 20.87 7.175ZM15.79 14.445H8.21C7.94478 14.445 7.69043 14.3396 7.50289 14.1521C7.31536 13.9646 7.21 13.7102 7.21 13.445C7.21 13.1798 7.31536 12.9254 7.50289 12.7379C7.69043 12.5504 7.94478 12.445 8.21 12.445H15.79C16.0552 12.445 16.3096 12.5504 16.4971 12.7379C16.6846 12.9254 16.79 13.1798 16.79 13.445C16.79 13.7102 16.6846 13.9646 16.4971 14.1521C16.3096 14.3396 16.0552 14.445 15.79 14.445Z" fill="#6C5C90"/>
</svg>
