<svg width="16" height="16" viewBox="0 0 16 16" fill="none" xmlns="http://www.w3.org/2000/svg">
<path d="M13.3333 7.76933V4.68546C13.3333 3.57033 13.3333 3.01244 13.1547 2.56718C12.868 1.85121 12.26 1.28674 11.49 1.01932C11.0113 0.853333 10.4113 0.853333 9.212 0.853333C7.11333 0.853333 6.064 0.853332 5.22533 1.1438C3.87867 1.61146 2.81533 2.59946 2.312 3.8529C2 4.6321 2 5.60825 2 7.55988V9.23618C2 11.2583 2 12.2687 2.56533 12.9708C2.728 13.1733 2.918 13.35 3.13533 13.5011C3.87333 14.0148 4.92667 14.0267 7 14.0267" stroke="#AA8738" stroke-linecap="round" stroke-linejoin="round"/>
<path d="M2 7.44C2 6.85776 2.2341 6.29937 2.65081 5.88766C3.06751 5.47596 3.63269 5.24466 4.222 5.24466C4.666 5.24466 5.18933 5.32107 5.62067 5.20712C5.80914 5.15701 5.98097 5.05882 6.11892 4.92241C6.25687 4.78599 6.3561 4.61615 6.40667 4.42989C6.522 4.00374 6.44467 3.48668 6.44467 3.04801C6.44484 2.46588 6.67902 1.90766 7.09571 1.4961C7.5124 1.08454 8.07747 0.853332 8.66667 0.853333M9.87533 14.0267C9.49533 13.6381 8 12.6039 8 12.0507C8 11.4974 9.496 10.4633 9.87533 10.0747M12.1247 14.0267C12.5047 13.6381 14 12.6039 14 12.0507C14 11.4974 12.504 10.4633 12.1253 10.0747" stroke="#AA8738" stroke-linecap="round" stroke-linejoin="round"/>
</svg>
