<svg width="16" height="16" viewBox="0 0 16 16" fill="none" xmlns="http://www.w3.org/2000/svg">
<path d="M4.00133 10C4.10533 10.872 3.664 13.0087 2.66666 14.5787C2.66666 14.5787 9.528 15.3727 10.4567 11.962V13.2473C10.4567 13.8753 10.4567 14.1887 10.652 14.384C11.028 14.7587 12.7927 14.7687 13.1693 14.368C13.3667 14.1573 13.3473 13.8547 13.3073 13.2487C13.242 12.25 13.062 10.9707 12.568 10M6.66666 2.66666C6.66666 2.31304 6.80714 1.9739 7.05719 1.72385C7.30724 1.4738 7.64638 1.33333 8 1.33333H8.66666C9.02029 1.33333 9.35942 1.4738 9.60947 1.72385C9.85952 1.9739 10 2.31304 10 2.66666V4.36866C10 4.79509 10.1363 5.21036 10.389 5.55384C10.6417 5.89733 10.9976 6.15106 11.4047 6.27799L11.9293 6.442C12.3363 6.56905 12.692 6.82282 12.9446 7.1663C13.1972 7.50978 13.3334 7.92498 13.3333 8.35133V9.33333C13.3333 9.51014 13.2631 9.67971 13.1381 9.80473C13.013 9.92976 12.8435 10 12.6667 10H4C3.82319 10 3.65362 9.92976 3.52859 9.80473C3.40357 9.67971 3.33333 9.51014 3.33333 9.33333V8.35133C3.33329 7.92498 3.46949 7.50978 3.72206 7.1663C3.97463 6.82282 4.33036 6.56905 4.73733 6.442L5.26266 6.27799C5.66964 6.15094 6.02536 5.89717 6.27793 5.55369C6.53051 5.21021 6.66671 4.79501 6.66666 4.36866V2.66666Z" stroke="#A28136" stroke-linecap="round" stroke-linejoin="round"/>
</svg>
